<?xml version="1.0" encoding="UTF-8" standalone="no"?>
<svg
   version="1.0"
   width="2048"
   height="2048"
   viewBox="0 0 1536 1536"
   preserveAspectRatio="xMidYMid"
   id="svg7"
   sodipodi:docname="sendak.svg"
   inkscape:version="1.4.3 (fcd0343856, 2026-01-01)"
   inkscape:export-filename="sendak.png"
   inkscape:export-xdpi="96"
   inkscape:export-ydpi="96"
   xmlns:inkscape="http://www.inkscape.org/namespaces/inkscape"
   xmlns:sodipodi="http://sodipodi.sourceforge.net/DTD/sodipodi-0.dtd"
   xmlns="http://www.w3.org/2000/svg"
   xmlns:svg="http://www.w3.org/2000/svg">
  <defs
     id="defs7">
    <inkscape:path-effect
       effect="powerclip"
       message=""
       id="path-effect31"
       is_visible="true"
       lpeversion="1"
       inverse="true"
       flatten="false"
       hide_clip="false" />
    <inkscape:path-effect
       effect="powerclip"
       message=""
       id="path-effect30"
       is_visible="true"
       lpeversion="1"
       inverse="true"
       flatten="false"
       hide_clip="false" />
    <inkscape:path-effect
       effect="powerclip"
       message=""
       id="path-effect29"
       is_visible="true"
       lpeversion="1"
       inverse="true"
       flatten="false"
       hide_clip="false" />
    <inkscape:path-effect
       effect="powerclip"
       message=""
       id="path-effect28"
       is_visible="true"
       lpeversion="1"
       inverse="true"
       flatten="false"
       hide_clip="false" />
    <inkscape:path-effect
       effect="powerclip"
       message=""
       id="path-effect23"
       is_visible="true"
       lpeversion="1"
       inverse="true"
       flatten="false"
       hide_clip="false" />
    <inkscape:path-effect
       effect="powerclip"
       message=""
       id="path-effect21"
       is_visible="true"
       lpeversion="1"
       inverse="true"
       flatten="false"
       hide_clip="false" />
    <inkscape:path-effect
       effect="powerclip"
       message=""
       id="path-effect18"
       is_visible="true"
       lpeversion="1"
       inverse="true"
       flatten="false"
       hide_clip="false" />
    <inkscape:path-effect
       effect="powerclip"
       message=""
       id="path-effect16"
       is_visible="true"
       lpeversion="1"
       inverse="true"
       flatten="false"
       hide_clip="false" />
    <inkscape:path-effect
       effect="powerclip"
       message=""
       id="path-effect10"
       is_visible="true"
       lpeversion="1"
       inverse="true"
       flatten="false"
       hide_clip="false" />
    <inkscape:path-effect
       effect="powerclip"
       message=""
       id="path-effect15"
       is_visible="true"
       lpeversion="1"
       inverse="true"
       flatten="false"
       hide_clip="false" />
    <inkscape:path-effect
       effect="powerclip"
       message=""
       id="path-effect11"
       is_visible="true"
       lpeversion="1"
       inverse="true"
       flatten="false"
       hide_clip="false" />
    <inkscape:path-effect
       effect="powerclip"
       message=""
       id="path-effect9"
       is_visible="true"
       lpeversion="1"
       inverse="true"
       flatten="false"
       hide_clip="false" />
    <clipPath
       clipPathUnits="userSpaceOnUse"
       id="clipPath9">
      <rect
         style="display:none;fill:#2f4f3e;fill-opacity:1;stroke:#11172b;stroke-width:0.75"
         id="rect9"
         width="98.3694"
         height="72.410805"
         x="356.58905"
         y="213.81682"
         d="m 356.58905,213.81682 h 98.3694 v 72.4108 h -98.3694 z" />
      <path
         id="lpe_path-effect9"
         style="fill:#2f4f3e;fill-opacity:1;stroke:#11172b;stroke-width:0.75"
         class="powerclip"
         d="M 22.40473,142.44349 H 452.79934 V 265.42914 H 22.40473 Z" />
    </clipPath>
    <clipPath
       clipPathUnits="userSpaceOnUse"
       id="clipPath10">
      <rect
         style="display:none;fill:#2f4f3e;fill-opacity:1;stroke:#11172b;stroke-width:0.75"
         id="rect11"
         width="118.86302"
         height="72.069244"
         x="-118.86302"
         y="216.89085"
         d="M -118.86302,216.89085 H 0 v 72.06925 h -118.86302 z" />
      <path
         id="lpe_path-effect11"
         style="fill:#2f4f3e;fill-opacity:1;stroke:#11172b;stroke-width:0.75"
         class="powerclip"
         d="M 22.40473,142.44349 H 452.79934 V 265.42914 H 22.40473 Z" />
    </clipPath>
    <clipPath
       clipPathUnits="userSpaceOnUse"
       id="clipPath14">
      <rect
         style="display:none;fill:#2f4f3e;fill-opacity:1;stroke:#11172b;stroke-width:0.75"
         id="rect15"
         width="98.3694"
         height="26.641712"
         x="354.88126"
         y="236.3598"
         d="m 354.88126,236.3598 h 98.3694 v 26.64171 h -98.3694 z" />
      <path
         id="lpe_path-effect15"
         style="fill:#2f4f3e;fill-opacity:1;stroke:#11172b;stroke-width:0.75"
         class="powerclip"
         d="M 22.40473,142.44349 H 452.79934 V 265.42914 H 22.40473 Z" />
    </clipPath>
    <clipPath
       clipPathUnits="userSpaceOnUse"
       id="clipPath8">
      <rect
         style="display:none;fill:#dee3db;stroke:#11172b;stroke-width:0.359245"
         id="rect10"
         width="140.11047"
         height="42.640148"
         x="239.1132"
         y="240.1162"
         d="m 239.1132,240.1162 h 140.11048 v 42.64014 H 239.1132 Z" />
      <path
         id="lpe_path-effect10"
         style="fill:#dee3db;stroke:#11172b;stroke-width:0.359245"
         class="powerclip"
         d="M 22.40473,142.44349 H 452.79934 V 265.42914 H 22.40473 Z" />
    </clipPath>
    <clipPath
       clipPathUnits="userSpaceOnUse"
       id="clipPath12">
      <rect
         style="fill:#dee3db;stroke:#11172b;stroke-width:0.359245"
         id="rect13"
         width="133.07983"
         height="258.39929"
         x="108.04211"
         y="101.53572"
         d="M 108.04211,101.53572 H 241.12194 V 359.93501 H 108.04211 Z" />
    </clipPath>
    <clipPath
       clipPathUnits="userSpaceOnUse"
       id="clipPath15">
      <rect
         style="display:none;fill:#dee3db;stroke:#11172b;stroke-width:0.75"
         id="rect16"
         width="11.230664"
         height="30.43148"
         x="356.12076"
         y="225.09634"
         d="m 356.12076,225.09634 h 11.23066 v 30.43148 h -11.23066 z" />
      <path
         id="lpe_path-effect16"
         style="fill:#dee3db;stroke:#11172b;stroke-width:0.75"
         class="powerclip"
         d="M -4.6318398,-5.02683 H 360.78683 V 237.54951 H -4.6318398 Z M -534.24152,179.69063 V 352.61871 H -2.8982544 V 179.69063 Z" />
    </clipPath>
    <clipPath
       clipPathUnits="userSpaceOnUse"
       id="clipPath17">
      <rect
         style="display:none;fill:#dee3db;stroke:#11172b;stroke-width:0.359878"
         id="rect18"
         width="8.6936464"
         height="19.933443"
         x="239.58424"
         y="243.23114"
         d="m 239.58424,243.23114 h 8.69365 v 19.93344 h -8.69365 z" />
      <path
         id="lpe_path-effect18"
         style="fill:#dee3db;stroke:#11172b;stroke-width:0.359878"
         class="powerclip"
         d="M 22.40473,142.44349 H 452.79934 V 265.42914 H 22.40473 Z" />
    </clipPath>
    <clipPath
       clipPathUnits="userSpaceOnUse"
       id="clipPath20">
      <rect
         style="display:none;fill:#dee3db;stroke:#11172b;stroke-width:0.359245"
         id="rect21"
         width="218.20932"
         height="183.62042"
         x="-109.48748"
         y="155.79744"
         d="M -109.48748,155.79744 H 108.72184 V 339.41786 H -109.48748 Z" />
      <path
         id="lpe_path-effect21"
         style="fill:#dee3db;stroke:#11172b;stroke-width:0.359245"
         class="powerclip"
         d="M 22.40473,142.44349 H 452.79934 V 265.42914 H 22.40473 Z" />
    </clipPath>
    <clipPath
       clipPathUnits="userSpaceOnUse"
       id="clipPath22">
      <rect
         style="display:none;fill:#dee3db;stroke:#11172b;stroke-width:0.359245"
         id="rect23"
         width="218.46693"
         height="40.120369"
         x="239.42706"
         y="239.1799"
         d="M 239.42706,239.1799 H 457.894 v 40.12037 H 239.42706 Z" />
      <path
         id="lpe_path-effect23"
         style="fill:#dee3db;stroke:#11172b;stroke-width:0.359245"
         class="powerclip"
         d="M 22.40473,142.44349 H 452.79934 V 265.42914 H 22.40473 Z" />
    </clipPath>
    <clipPath
       clipPathUnits="userSpaceOnUse"
       id="clipPath24">
      <rect
         style="display:none;fill:#dee3db;stroke:#11172b;stroke-width:0.359245"
         id="rect25"
         width="195.30533"
         height="107.94108"
         x="-87.826347"
         y="214.89366"
         d="M -87.826347,214.89366 H 107.47898 V 322.83474 H -87.826347 Z" />
      <path
         id="lpe_path-effect28"
         style="fill:#dee3db;stroke:#11172b;stroke-width:0.359245"
         class="powerclip"
         d="M 22.40473,142.44349 H 452.79934 V 265.42914 H 22.40473 Z" />
    </clipPath>
    <clipPath
       clipPathUnits="userSpaceOnUse"
       id="clipPath25">
      <rect
         style="display:none;fill:#dee3db;stroke:#11172b;stroke-width:0.75"
         id="rect26"
         width="531.34326"
         height="172.92809"
         x="-534.24152"
         y="179.69063"
         d="M -534.24152,179.69063 H -2.8982544 V 352.61871 H -534.24152 Z" />
      <path
         id="lpe_path-effect29"
         style="fill:#dee3db;stroke:#11172b;stroke-width:0.75"
         class="powerclip"
         d="m 95.7,266.34805 h 40.192 v 60.55353 H 95.7 Z M -534.24152,179.69063 V 352.61871 H -2.8982544 V 179.69063 Z" />
    </clipPath>
    <clipPath
       clipPathUnits="userSpaceOnUse"
       id="clipPath26">
      <rect
         style="display:none;fill:#dee3db;stroke:#11172b;stroke-width:0.75"
         id="rect27"
         width="531.34326"
         height="172.92809"
         x="-534.24152"
         y="179.69063"
         d="M -534.24152,179.69063 H -2.8982544 V 352.61871 H -534.24152 Z" />
      <path
         id="lpe_path-effect30"
         style="fill:#dee3db;stroke:#11172b;stroke-width:0.75"
         class="powerclip"
         d="M -4.6386952,246.76268 H 360.7364 V 361.3557 H -4.6386952 Z M -534.24152,179.69063 V 352.61871 H -2.8982544 V 179.69063 Z" />
    </clipPath>
    <clipPath
       clipPathUnits="userSpaceOnUse"
       id="clipPath27">
      <rect
         style="display:none;fill:#dee3db;stroke:#11172b;stroke-width:0.75"
         id="rect28"
         width="531.34326"
         height="172.92809"
         x="-534.24152"
         y="179.69063"
         d="M -534.24152,179.69063 H -2.8982544 V 352.61871 H -534.24152 Z" />
      <path
         id="lpe_path-effect31"
         style="fill:#dee3db;stroke:#11172b;stroke-width:0.75"
         class="powerclip"
         d="M -4.6318398,-5.02683 H 360.78683 V 237.54951 H -4.6318398 Z M -534.24152,179.69063 V 352.61871 H -2.8982544 V 179.69063 Z" />
    </clipPath>
    <clipPath
       clipPathUnits="userSpaceOnUse"
       id="clipPath32">
      <rect
         style="fill:#dee3db;stroke:none;stroke-width:0.359245"
         id="rect33"
         width="57.500534"
         height="113.63599"
         x="143.72467"
         y="130.02113"
         d="M 143.72467,130.02113 H 201.2252 V 243.65712 H 143.72467 Z" />
    </clipPath>
  </defs>
  <sodipodi:namedview
     id="namedview7"
     pagecolor="#ffffff"
     bordercolor="#000000"
     borderopacity="0.25"
     inkscape:showpageshadow="2"
     inkscape:pageopacity="0.0"
     inkscape:pagecheckerboard="0"
     inkscape:deskcolor="#d1d1d1"
     inkscape:document-units="pt"
     inkscape:zoom="0.19408357"
     inkscape:cx="2073.8489"
     inkscape:cy="1821.3804"
     inkscape:window-width="1920"
     inkscape:window-height="945"
     inkscape:window-x="0"
     inkscape:window-y="0"
     inkscape:window-maximized="1"
     inkscape:current-layer="svg7" />
  <path
     style="fill:#4a90e2;fill-opacity:1;stroke:none;stroke-width:0.757107"
     id="rect7"
     width="355.41867"
     height="232.57634"
     x="0.36816022"
     y="-0.026829995"
     clip-path="url(#clipPath27)"
     inkscape:path-effect="#path-effect16;#path-effect31"
     sodipodi:type="rect"
     d="M 0.36816022,-0.02683 H 355.78683 V 232.54951 H 0.36816022 Z"
     transform="matrix(4.3159152,0,0,4.3100418,-0.80138341,0.08880841)" />
  <path
     style="fill:#d9a441;fill-opacity:1;stroke:none;stroke-width:0.507692"
     id="rect7-6"
     width="355.37509"
     height="104.59302"
     x="0.36130485"
     y="251.76268"
     clip-path="url(#clipPath26)"
     inkscape:path-effect="#path-effect30"
     sodipodi:type="rect"
     d="M 0.36130485,251.76268 H 355.7364 V 356.3557 H 0.36130485 Z"
     transform="matrix(4.3274491,0,0,5.0419382,-0.80552231,-261.75616)" />
  <path
     d="m 1001.0109,1154.4824 c -12.48301,50.8479 -27.69667,104.1967 -33.54809,118.3675 -5.85142,14.1708 -10.92271,26.6743 -10.92271,28.3415 0,0.8335 8.58211,1.6672 19.50473,1.6672 21.45525,-1.6672 22.62551,-3.3344 12.87323,-18.3387 -5.85151,-9.1693 -5.85151,-13.3372 -0.78026,-42.5123 5.46133,-30.8422 6.63163,-32.5093 24.1859,-35.0101 18.3345,-2.5007 18.3345,-2.5007 26.9166,35.8437 7.4117,33.343 7.8019,39.178 3.1207,45.8466 -3.9009,5.835 3.5109,8.3358 22.6255,8.3358 h 28.867 l -8.5821,-23.3402 c -4.6811,-12.5035 -18.3344,-60.0172 -30.0373,-105.8639 -12.0929,-45.8465 -23.7958,-88.3588 -26.5264,-94.1938 -3.901,-9.1693 -8.9722,5.835 -27.6968,80.8567 z m 19.8949,9.1693 c 7.4118,31.6758 8.192,30.0087 -7.8019,31.6758 -7.4118,1.6671 -13.65339,0 -13.65339,-2.5008 0,-7.5021 11.70289,-54.1822 13.65339,-54.1822 0.7801,0 4.291,10.8364 7.8019,25.0072 z"
     id="path1"
     style="fill:#ffffff;stroke:none;stroke-width:0.570238" />
  <path
     d="m 1143.3956,1162.8181 c 0.7801,63.3516 -0.3903,105.0304 -3.1208,116.7003 -4.2911,16.6715 -3.901,17.5052 19.5047,17.5052 19.8949,0 23.4057,-1.6673 19.5048,-11.6701 -2.3405,-5.8351 -4.6812,-31.6759 -5.4614,-55.8495 -0.3906,-35.0101 0.3903,-45.0129 5.4614,-47.5137 4.291,-1.6671 9.7523,15.0043 18.3345,56.6831 l 12.483,58.3502 h 22.2354 21.8453 l -7.8019,-19.1723 c -4.2911,-10.0028 -10.9226,-30.0087 -14.4335,-45.013 -7.8019,-33.3429 -24.1859,-60.8509 -35.8887,-60.8509 -5.0713,0 -9.3623,-3.3343 -9.3623,-7.5021 0,-10.0029 22.2354,-50.8481 40.1797,-75.0217 7.8019,-10.0029 14.4336,-20.8393 14.4336,-22.5066 0,-1.667 -8.5821,-3.3343 -19.1147,-3.3343 -17.5543,0 -19.1146,1.6673 -17.1641,17.5052 1.5603,12.5036 -1.9505,25.8408 -12.8731,50.0144 -8.1921,17.5051 -16.384,32.5094 -17.9445,32.5094 -5.0712,0 -3.5108,-79.1896 1.5605,-90.026 3.5108,-7.5022 0.3902,-10.003 -14.4336,-10.003 h -19.5047 z"
     id="path2"
     style="fill:#ffffff;stroke:none;stroke-width:0.570238" />
  <path
     d="m 720.92283,1071.399 c -1.1703,1.6672 0.39065,11.6701 3.51086,21.6729 3.51086,10.0029 5.85142,36.6773 5.85142,67.5195 v 50.0144 l -32.37787,-69.1866 -31.98782,-68.353 h -21.06508 c -20.28494,0 -20.67503,0.8335 -14.82361,15.0042 5.07125,12.5037 6.63163,32.5094 6.63163,95.0275 0,67.5195 -1.1703,82.5238 -8.19197,101.696 l -7.80194,21.6729 h 19.50477 c 21.06512,0 23.79572,-4.1677 13.26319,-20.8394 -5.07125,-8.3356 -7.02168,-27.5078 -8.19198,-88.3588 l -1.56043,-78.3558 44.47088,93.3602 c 24.18589,51.6816 45.64113,94.1938 47.20143,94.1938 1.56035,0 2.73069,-44.1794 2.73069,-98.3617 0,-73.3544 1.56039,-102.5295 5.85146,-115.0332 3.12073,-8.3358 5.85142,-17.5051 5.85142,-20.0057 0,-5.8351 -26.1364,-7.5022 -28.86705,-1.6672 z"
     id="path3"
     style="fill:#ffffff;stroke:none;stroke-width:0.570238" />
  <path
     d="m 812.5951,1089.4636 c 7.41185,30.0087 1.95052,191.722 -6.63159,205.0592 -5.85142,9.1693 0,10.8365 33.93826,10.8365 34.71847,0 43.30049,-2.5007 58.12414,-19.1723 34.32835,-37.5107 40.95994,-121.7017 14.0434,-180.0519 l -14.0434,-30.0087 -45.251,-2.5007 -45.25101,-3.3342 z m 63.1954,0 c 14.04339,13.3372 19.11464,38.3444 18.72455,91.6932 0,74.1881 -10.53262,107.531 -33.93825,107.531 -13.65331,0 -17.16417,-27.5079 -17.16417,-125.8697 v -82.5238 h 11.70284 c 6.2415,0 15.60378,4.1678 20.67503,9.1693 z"
     id="path4"
     style="fill:#ffffff;stroke:none;stroke-width:0.570238" />
  <path
     d="m 298.4501,1081.6759 c -15.99389,21.6729 -21.84531,45.8466 -18.72453,76.6888 3.12073,28.3415 15.21371,44.1794 40.95994,53.3488 23.79578,8.3357 31.20758,18.3385 31.20758,41.6787 0,60.8508 -43.69061,61.6844 -62.02505,0.8335 -7.80192,-25.0072 -9.75238,-22.5065 -13.65334,16.6715 -3.12073,31.6758 0,35.8437 35.10854,42.5123 37.83921,7.5022 63.58545,-20.0058 69.82698,-74.1881 4.29101,-35.0101 -14.43351,-70.8539 -40.95994,-78.356 -19.11468,-5.0015 -35.10858,-25.8408 -35.10858,-44.1794 0,-16.6715 12.87316,-34.1765 24.96607,-34.1765 13.65334,0 21.06514,10.0029 30.81756,40.8451 l 6.24147,20.0058 3.51082,-28.3415 c 1.95052,-15.8379 2.34062,-31.6759 0.39004,-35.8437 -1.56043,-4.168 -15.99388,-9.1693 -31.59768,-10.8365 -23.79584,-3.3343 -30.4274,-0.8335 -40.95999,13.3372 z"
     id="path5"
     style="fill:#ffffff;stroke:none;stroke-width:0.570238" />
  <path
     d="m 104.8,272.7738 c -2.1,0.86493 -2.5,1.55687 -1.8,3.63269 0.5,1.38388 1,10.37911 1,19.89329 0,13.49284 -0.4,18.33642 -1.7,21.45015 l -1.6,4.15165 3.9,-1.03792 c 2.1,-0.69193 8.5,-1.21089 14.1,-1.21089 h 10.2 l 1,-6.57343 c 1.6,-9.51418 1.4,-10.03314 -1.6,-5.01657 -3.6,5.88149 -10,10.37911 -12.9,9.16821 -2.4,-1.03791 -3.1,-3.97866 -3.6,-14.87672 -0.3,-5.36254 0,-6.05448 2.2,-6.57343 1.4,-0.17299 4.2,1.0379 6.3,2.94074 l 3.7,3.28672 v -8.82224 -8.82224 l -2,3.80567 c -2.1,3.80567 -8.1,6.74642 -9.9,4.67059 -0.6,-0.51895 -1.1,-4.84358 -1.1,-9.68716 v -8.47627 h 3.9 c 2.1,0 5.8,1.90283 8.5,4.32463 4.8,4.32462 5.2,3.97865 3.6,-3.28672 -0.9,-4.32463 -1.1,-4.49761 -10.2,-4.32463 -5.1,0.17299 -10.5,0.69194 -12,1.38388 z"
     id="path6"
     style="fill:#ffffff;stroke:none;stroke-width:0.131524"
     clip-path="url(#clipPath25)"
     inkscape:path-effect="#path-effect29"
     inkscape:original-d="m 104.8,272.7738 c -2.1,0.86493 -2.5,1.55687 -1.8,3.63269 0.5,1.38388 1,10.37911 1,19.89329 0,13.49284 -0.4,18.33642 -1.7,21.45015 l -1.6,4.15165 3.9,-1.03792 c 2.1,-0.69193 8.5,-1.21089 14.1,-1.21089 h 10.2 l 1,-6.57343 c 1.6,-9.51418 1.4,-10.03314 -1.6,-5.01657 -3.6,5.88149 -10,10.37911 -12.9,9.16821 -2.4,-1.03791 -3.1,-3.97866 -3.6,-14.87672 -0.3,-5.36254 0,-6.05448 2.2,-6.57343 1.4,-0.17299 4.2,1.0379 6.3,2.94074 l 3.7,3.28672 v -8.82224 -8.82224 l -2,3.80567 c -2.1,3.80567 -8.1,6.74642 -9.9,4.67059 -0.6,-0.51895 -1.1,-4.84358 -1.1,-9.68716 v -8.47627 h 3.9 c 2.1,0 5.8,1.90283 8.5,4.32463 4.8,4.32462 5.2,3.97865 3.6,-3.28672 -0.9,-4.32463 -1.1,-4.49761 -10.2,-4.32463 -5.1,0.17299 -10.5,0.69194 -12,1.38388 z"
     transform="matrix(3.9009484,0,0,4.8187612,51.520075,-241.09162)" />
  <path
     d="m 171.88954,150.02485 c -1.15721,1.84776 -1.81846,4.6194 -1.48784,6.46715 0.16532,1.61679 -1.48781,6.69813 -3.80222,11.08656 -2.47972,4.38842 -5.95133,14.08914 -7.93509,21.48018 -3.96754,15.47497 -3.96754,15.47497 -1.81846,15.47497 0.99189,0 3.47159,-5.54327 5.62069,-12.24139 l 3.80224,-12.01043 0.66125,12.47236 c 0.49594,10.16268 -0.33063,15.70595 -5.12475,31.64286 l -5.786,19.40146 H 27.40473 c 0,0 67.321034,16.75886 149.27893,16.62983 l 271.11568,-0.46195 v -8.08394 -8.08394 H 318.85408 c -113.90165,0 -128.77994,-0.46194 -127.95337,-3.46454 0.66124,-2.07873 0.1653,-3.46454 -1.15721,-3.46454 -2.97567,0 -9.91886,-24.94474 -11.07606,-38.80293 l -0.82658,-10.39363 6.11664,6.46715 c 8.1004,8.54587 9.42291,5.54326 2.14908,-4.85037 -8.26572,-12.01043 -10.58013,-20.32534 -7.60446,-27.71638 3.30628,-9.00782 -2.3144,-18.93952 -6.61258,-11.54848 z m 5.62069,76.22002 c 2.31441,6.9291 4.13286,13.85819 4.13286,15.01304 0,3.69552 -14.21704,3.0026 -16.36614,-0.69291 -1.48783,-2.54068 -0.99187,-5.77425 2.64505,-15.01304 2.4797,-6.46715 4.79411,-11.77946 5.12473,-11.77946 0.16532,0 2.1491,5.54328 4.4635,12.47237 z"
     id="path7"
     style="fill:#2f4f3e;fill-opacity:1;stroke:none;stroke-width:0.195404"
     clip-path="url(#clipPath32)"
     inkscape:original-d="m 171.88954,150.02485 c -1.15721,1.84776 -1.81846,4.6194 -1.48784,6.46715 0.16532,1.61679 -1.48781,6.69813 -3.80222,11.08656 -2.47972,4.38842 -5.95133,14.08914 -7.93509,21.48018 -3.96754,15.47497 -3.96754,15.47497 -1.81846,15.47497 0.99189,0 3.47159,-5.54327 5.62069,-12.24139 l 3.80224,-12.01043 0.66125,12.47236 c 0.49594,10.16268 -0.33063,15.70595 -5.12475,31.64286 l -5.786,19.40146 H 27.40473 c 0,0 67.321034,16.75886 149.27893,16.62983 l 271.11568,-0.46195 v -8.08394 -8.08394 H 318.85408 c -113.90165,0 -128.77994,-0.46194 -127.95337,-3.46454 0.66124,-2.07873 0.1653,-3.46454 -1.15721,-3.46454 -2.97567,0 -9.91886,-24.94474 -11.07606,-38.80293 l -0.82658,-10.39363 6.11664,6.46715 c 8.1004,8.54587 9.42291,5.54326 2.14908,-4.85037 -8.26572,-12.01043 -10.58013,-20.32534 -7.60446,-27.71638 3.30628,-9.00782 -2.3144,-18.93952 -6.61258,-11.54848 z m 5.62069,76.22002 c 2.31441,6.9291 4.13286,13.85819 4.13286,15.01304 0,3.69552 -14.21704,3.0026 -16.36614,-0.69291 -1.48783,-2.54068 -0.99187,-5.77425 2.64505,-15.01304 2.4797,-6.46715 4.79411,-11.77946 5.12473,-11.77946 0.16532,0 2.1491,5.54328 4.4635,12.47237 z"
     inkscape:path-effect="#path-effect9;#path-effect11;#path-effect15;#path-effect10;#path-effect18;#path-effect21;#path-effect23;#path-effect28"
     transform="matrix(11.730508,0,0,6.904946,-1296.3656,-758.68069)"
     sodipodi:nodetypes="ccccsccccccccccscsccccccssccss" />
  <rect
     style="fill:#2f4f3e;fill-opacity:1;stroke:none;stroke-width:3.33027"
     id="rect34"
     width="1533.9493"
     height="91.604446"
     x="0.24151964"
     y="919.74768" />
</svg>
