<?xml version="1.0" encoding="UTF-8" standalone="no"?>
<svg
   version="1.0"
   width="356.000000pt"
   height="356.000000pt"
   viewBox="0 0 356.000000 356.000000"
   preserveAspectRatio="xMidYMid meet"
   id="svg7"
   sodipodi:docname="sendak.svg"
   inkscape:version="1.4.3 (fcd0343856, 2026-01-01)"
   inkscape:export-filename="sendak.png"
   inkscape:export-xdpi="96"
   inkscape:export-ydpi="96"
   xmlns:inkscape="http://www.inkscape.org/namespaces/inkscape"
   xmlns:sodipodi="http://sodipodi.sourceforge.net/DTD/sodipodi-0.dtd"
   xmlns="http://www.w3.org/2000/svg"
   xmlns:svg="http://www.w3.org/2000/svg">
  <defs
     id="defs7">
    <inkscape:path-effect
       effect="powerclip"
       message=""
       id="path-effect31"
       is_visible="true"
       lpeversion="1"
       inverse="true"
       flatten="false"
       hide_clip="false" />
    <inkscape:path-effect
       effect="powerclip"
       message=""
       id="path-effect30"
       is_visible="true"
       lpeversion="1"
       inverse="true"
       flatten="false"
       hide_clip="false" />
    <inkscape:path-effect
       effect="powerclip"
       message=""
       id="path-effect29"
       is_visible="true"
       lpeversion="1"
       inverse="true"
       flatten="false"
       hide_clip="false" />
    <inkscape:path-effect
       effect="powerclip"
       message=""
       id="path-effect28"
       is_visible="true"
       lpeversion="1"
       inverse="true"
       flatten="false"
       hide_clip="false" />
    <inkscape:path-effect
       effect="powerclip"
       message=""
       id="path-effect23"
       is_visible="true"
       lpeversion="1"
       inverse="true"
       flatten="false"
       hide_clip="false" />
    <inkscape:path-effect
       effect="powerclip"
       message=""
       id="path-effect21"
       is_visible="true"
       lpeversion="1"
       inverse="true"
       flatten="false"
       hide_clip="false" />
    <inkscape:path-effect
       effect="powerclip"
       message=""
       id="path-effect18"
       is_visible="true"
       lpeversion="1"
       inverse="true"
       flatten="false"
       hide_clip="false" />
    <inkscape:path-effect
       effect="powerclip"
       message=""
       id="path-effect16"
       is_visible="true"
       lpeversion="1"
       inverse="true"
       flatten="false"
       hide_clip="false" />
    <inkscape:path-effect
       effect="powerclip"
       message=""
       id="path-effect10"
       is_visible="true"
       lpeversion="1"
       inverse="true"
       flatten="false"
       hide_clip="false" />
    <inkscape:path-effect
       effect="powerclip"
       message=""
       id="path-effect15"
       is_visible="true"
       lpeversion="1"
       inverse="true"
       flatten="false"
       hide_clip="false" />
    <inkscape:path-effect
       effect="powerclip"
       message=""
       id="path-effect11"
       is_visible="true"
       lpeversion="1"
       inverse="true"
       flatten="false"
       hide_clip="false" />
    <inkscape:path-effect
       effect="powerclip"
       message=""
       id="path-effect9"
       is_visible="true"
       lpeversion="1"
       inverse="true"
       flatten="false"
       hide_clip="false" />
    <clipPath
       clipPathUnits="userSpaceOnUse"
       id="clipPath9">
      <rect
         style="display:none;fill:#2f4f3e;fill-opacity:1;stroke:#11172b;stroke-width:0.75"
         id="rect9"
         width="98.3694"
         height="72.410805"
         x="356.58905"
         y="213.81682"
         d="m 356.58905,213.81682 h 98.3694 v 72.4108 h -98.3694 z" />
      <path
         id="lpe_path-effect9"
         style="fill:#2f4f3e;fill-opacity:1;stroke:#11172b;stroke-width:0.75"
         class="powerclip"
         d="M 22.40473,142.44349 H 452.79934 V 265.42914 H 22.40473 Z" />
    </clipPath>
    <clipPath
       clipPathUnits="userSpaceOnUse"
       id="clipPath10">
      <rect
         style="display:none;fill:#2f4f3e;fill-opacity:1;stroke:#11172b;stroke-width:0.75"
         id="rect11"
         width="118.86302"
         height="72.069244"
         x="-118.86302"
         y="216.89085"
         d="M -118.86302,216.89085 H 0 v 72.06925 h -118.86302 z" />
      <path
         id="lpe_path-effect11"
         style="fill:#2f4f3e;fill-opacity:1;stroke:#11172b;stroke-width:0.75"
         class="powerclip"
         d="M 22.40473,142.44349 H 452.79934 V 265.42914 H 22.40473 Z" />
    </clipPath>
    <clipPath
       clipPathUnits="userSpaceOnUse"
       id="clipPath14">
      <rect
         style="display:none;fill:#2f4f3e;fill-opacity:1;stroke:#11172b;stroke-width:0.75"
         id="rect15"
         width="98.3694"
         height="26.641712"
         x="354.88126"
         y="236.3598"
         d="m 354.88126,236.3598 h 98.3694 v 26.64171 h -98.3694 z" />
      <path
         id="lpe_path-effect15"
         style="fill:#2f4f3e;fill-opacity:1;stroke:#11172b;stroke-width:0.75"
         class="powerclip"
         d="M 22.40473,142.44349 H 452.79934 V 265.42914 H 22.40473 Z" />
    </clipPath>
    <clipPath
       clipPathUnits="userSpaceOnUse"
       id="clipPath8">
      <rect
         style="display:none;fill:#dee3db;stroke:#11172b;stroke-width:0.359245"
         id="rect10"
         width="140.11047"
         height="42.640148"
         x="239.1132"
         y="240.1162"
         d="m 239.1132,240.1162 h 140.11048 v 42.64014 H 239.1132 Z" />
      <path
         id="lpe_path-effect10"
         style="fill:#dee3db;stroke:#11172b;stroke-width:0.359245"
         class="powerclip"
         d="M 22.40473,142.44349 H 452.79934 V 265.42914 H 22.40473 Z" />
    </clipPath>
    <clipPath
       clipPathUnits="userSpaceOnUse"
       id="clipPath12">
      <rect
         style="fill:#dee3db;stroke:#11172b;stroke-width:0.359245"
         id="rect13"
         width="133.07983"
         height="258.39929"
         x="108.04211"
         y="101.53572"
         d="M 108.04211,101.53572 H 241.12194 V 359.93501 H 108.04211 Z" />
    </clipPath>
    <clipPath
       clipPathUnits="userSpaceOnUse"
       id="clipPath15">
      <rect
         style="display:none;fill:#dee3db;stroke:#11172b;stroke-width:0.75"
         id="rect16"
         width="11.230664"
         height="30.43148"
         x="356.12076"
         y="225.09634"
         d="m 356.12076,225.09634 h 11.23066 v 30.43148 h -11.23066 z" />
      <path
         id="lpe_path-effect16"
         style="fill:#dee3db;stroke:#11172b;stroke-width:0.75"
         class="powerclip"
         d="M -4.6318398,-5.02683 H 360.78683 V 237.54951 H -4.6318398 Z M -534.24152,179.69063 V 352.61871 H -2.8982544 V 179.69063 Z" />
    </clipPath>
    <clipPath
       clipPathUnits="userSpaceOnUse"
       id="clipPath17">
      <rect
         style="display:none;fill:#dee3db;stroke:#11172b;stroke-width:0.359878"
         id="rect18"
         width="8.6936464"
         height="19.933443"
         x="239.58424"
         y="243.23114"
         d="m 239.58424,243.23114 h 8.69365 v 19.93344 h -8.69365 z" />
      <path
         id="lpe_path-effect18"
         style="fill:#dee3db;stroke:#11172b;stroke-width:0.359878"
         class="powerclip"
         d="M 22.40473,142.44349 H 452.79934 V 265.42914 H 22.40473 Z" />
    </clipPath>
    <clipPath
       clipPathUnits="userSpaceOnUse"
       id="clipPath20">
      <rect
         style="display:none;fill:#dee3db;stroke:#11172b;stroke-width:0.359245"
         id="rect21"
         width="218.20932"
         height="183.62042"
         x="-109.48748"
         y="155.79744"
         d="M -109.48748,155.79744 H 108.72184 V 339.41786 H -109.48748 Z" />
      <path
         id="lpe_path-effect21"
         style="fill:#dee3db;stroke:#11172b;stroke-width:0.359245"
         class="powerclip"
         d="M 22.40473,142.44349 H 452.79934 V 265.42914 H 22.40473 Z" />
    </clipPath>
    <clipPath
       clipPathUnits="userSpaceOnUse"
       id="clipPath22">
      <rect
         style="display:none;fill:#dee3db;stroke:#11172b;stroke-width:0.359245"
         id="rect23"
         width="218.46693"
         height="40.120369"
         x="239.42706"
         y="239.1799"
         d="M 239.42706,239.1799 H 457.894 v 40.12037 H 239.42706 Z" />
      <path
         id="lpe_path-effect23"
         style="fill:#dee3db;stroke:#11172b;stroke-width:0.359245"
         class="powerclip"
         d="M 22.40473,142.44349 H 452.79934 V 265.42914 H 22.40473 Z" />
    </clipPath>
    <clipPath
       clipPathUnits="userSpaceOnUse"
       id="clipPath24">
      <rect
         style="display:none;fill:#dee3db;stroke:#11172b;stroke-width:0.359245"
         id="rect25"
         width="195.30533"
         height="107.94108"
         x="-87.826347"
         y="214.89366"
         d="M -87.826347,214.89366 H 107.47898 V 322.83474 H -87.826347 Z" />
      <path
         id="lpe_path-effect28"
         style="fill:#dee3db;stroke:#11172b;stroke-width:0.359245"
         class="powerclip"
         d="M 22.40473,142.44349 H 452.79934 V 265.42914 H 22.40473 Z" />
    </clipPath>
    <clipPath
       clipPathUnits="userSpaceOnUse"
       id="clipPath25">
      <rect
         style="display:none;fill:#dee3db;stroke:#11172b;stroke-width:0.75"
         id="rect26"
         width="531.34326"
         height="172.92809"
         x="-534.24152"
         y="179.69063"
         d="M -534.24152,179.69063 H -2.8982544 V 352.61871 H -534.24152 Z" />
      <path
         id="lpe_path-effect29"
         style="fill:#dee3db;stroke:#11172b;stroke-width:0.75"
         class="powerclip"
         d="m 95.7,266.34805 h 40.192 v 60.55353 H 95.7 Z M -534.24152,179.69063 V 352.61871 H -2.8982544 V 179.69063 Z" />
    </clipPath>
    <clipPath
       clipPathUnits="userSpaceOnUse"
       id="clipPath26">
      <rect
         style="display:none;fill:#dee3db;stroke:#11172b;stroke-width:0.75"
         id="rect27"
         width="531.34326"
         height="172.92809"
         x="-534.24152"
         y="179.69063"
         d="M -534.24152,179.69063 H -2.8982544 V 352.61871 H -534.24152 Z" />
      <path
         id="lpe_path-effect30"
         style="fill:#dee3db;stroke:#11172b;stroke-width:0.75"
         class="powerclip"
         d="M -4.6386952,246.76268 H 360.7364 V 361.3557 H -4.6386952 Z M -534.24152,179.69063 V 352.61871 H -2.8982544 V 179.69063 Z" />
    </clipPath>
    <clipPath
       clipPathUnits="userSpaceOnUse"
       id="clipPath27">
      <rect
         style="display:none;fill:#dee3db;stroke:#11172b;stroke-width:0.75"
         id="rect28"
         width="531.34326"
         height="172.92809"
         x="-534.24152"
         y="179.69063"
         d="M -534.24152,179.69063 H -2.8982544 V 352.61871 H -534.24152 Z" />
      <path
         id="lpe_path-effect31"
         style="fill:#dee3db;stroke:#11172b;stroke-width:0.75"
         class="powerclip"
         d="M -4.6318398,-5.02683 H 360.78683 V 237.54951 H -4.6318398 Z M -534.24152,179.69063 V 352.61871 H -2.8982544 V 179.69063 Z" />
    </clipPath>
    <clipPath
       clipPathUnits="userSpaceOnUse"
       id="clipPath32">
      <rect
         style="fill:#dee3db;stroke:none;stroke-width:0.359245"
         id="rect33"
         width="57.500534"
         height="113.63599"
         x="143.72467"
         y="130.02113"
         d="M 143.72467,130.02113 H 201.2252 V 243.65712 H 143.72467 Z" />
    </clipPath>
  </defs>
  <sodipodi:namedview
     id="namedview7"
     pagecolor="#ffffff"
     bordercolor="#000000"
     borderopacity="0.25"
     inkscape:showpageshadow="2"
     inkscape:pageopacity="0.0"
     inkscape:pagecheckerboard="0"
     inkscape:deskcolor="#d1d1d1"
     inkscape:document-units="pt"
     inkscape:zoom="1.0979025"
     inkscape:cx="211.76745"
     inkscape:cy="246.3789"
     inkscape:window-width="1920"
     inkscape:window-height="945"
     inkscape:window-x="0"
     inkscape:window-y="0"
     inkscape:window-maximized="1"
     inkscape:current-layer="svg7" />
  <path
     style="fill:#4a90e2;fill-opacity:1;stroke:none;stroke-width:0.757107"
     id="rect7"
     width="355.41867"
     height="232.57634"
     x="0.36816022"
     y="-0.026829995"
     clip-path="url(#clipPath27)"
     inkscape:path-effect="#path-effect16;#path-effect31"
     sodipodi:type="rect"
     d="M 0.36816022,-0.02683 H 355.78683 V 232.54951 H 0.36816022 Z"
     transform="matrix(1.000961,0,0,1,-3.5380513e-4,0)" />
  <path
     style="fill:#d9a441;fill-opacity:1;stroke:none;stroke-width:0.507692"
     id="rect7-6"
     width="355.37509"
     height="104.59302"
     x="0.36130485"
     y="251.76268"
     clip-path="url(#clipPath26)"
     inkscape:path-effect="#path-effect30"
     sodipodi:type="rect"
     d="M 0.36130485,251.76268 H 355.7364 V 356.3557 H 0.36130485 Z"
     transform="matrix(1.0009611,0,0,1.1698119,-3.4725964e-4,-60.752303)" />
  <path
     d="m 232.3432,267.83813 c -2.89511,11.79757 -6.42351,24.17535 -7.78059,27.4632 -1.35708,3.28785 -2.53323,6.18889 -2.53323,6.57569 0,0.1934 1.99039,0.3868 4.5236,0.3868 4.97597,-0.3868 5.24738,-0.7736 2.9856,-4.25486 -1.3571,-2.12743 -1.3571,-3.09444 -0.18096,-9.86354 1.26661,-7.1559 1.53803,-7.5427 5.60927,-8.12291 4.25219,-0.58021 4.25219,-0.58021 6.24258,8.31632 1.71896,7.73611 1.80944,9.08993 0.72377,10.63715 -0.90472,1.35382 0.81425,1.93403 5.24738,1.93403 h 6.69493 l -1.99038,-5.41527 c -1.08567,-2.90105 -4.25218,-13.925 -6.96635,-24.56217 -2.80464,-10.63715 -5.5188,-20.50068 -6.1521,-21.8545 -0.90472,-2.12743 -2.08086,1.35382 -6.42352,18.76006 z m 4.61407,2.12744 c 1.71898,7.3493 1.89993,6.96249 -1.80944,7.3493 -1.71896,0.3868 -3.16653,0 -3.16653,-0.58021 0,-1.74062 2.71417,-12.57118 3.16653,-12.57118 0.18094,0 0.9952,2.51424 1.80944,5.80209 z"
     id="path1"
     style="fill:#ffffff;stroke:none;stroke-width:0.132278" />
  <path
     d="m 265.3655,269.77216 c 0.18094,14.69861 -0.0905,24.36875 -0.72377,27.07639 -0.9952,3.86805 -0.90473,4.06146 4.52359,4.06146 4.61409,0 5.42833,-0.38681 4.52361,-2.70764 -0.54282,-1.35382 -1.08567,-7.34931 -1.26661,-12.95799 -0.0906,-8.12291 0.0905,-10.44374 1.26661,-11.02396 0.99519,-0.3868 2.2618,3.48125 4.25219,13.15139 l 2.89511,13.5382 h 5.15691 5.06642 l -1.80943,-4.44827 c -0.9952,-2.32083 -2.53322,-6.9625 -3.34747,-10.44375 -1.80944,-7.7361 -5.60926,-14.1184 -8.32343,-14.1184 -1.17614,0 -2.17133,-0.77361 -2.17133,-1.74063 0,-2.32083 5.15691,-11.79756 9.31862,-17.40624 1.80944,-2.32083 3.34747,-4.83506 3.34747,-5.22188 0,-0.3868 -1.99038,-0.77361 -4.43314,-0.77361 -4.07124,0 -4.43312,0.38681 -3.98076,4.06146 0.36188,2.90105 -0.45236,5.99549 -2.98557,11.60417 -1.89993,4.06146 -3.79983,7.54271 -4.16173,7.54271 -1.17614,0 -0.81424,-18.37327 0.3619,-20.8875 0.81424,-1.74063 0.0905,-2.32084 -3.34748,-2.32084 h -4.5236 z"
     id="path2"
     style="fill:#ffffff;stroke:none;stroke-width:0.132278" />
  <path
     d="m 167.38426,248.56144 c -0.27142,0.38681 0.0906,2.70764 0.81425,5.02847 0.81425,2.32083 1.35708,8.50972 1.35708,15.66562 v 11.60417 l -7.50918,-16.05243 -7.41872,-15.85902 h -4.88548 c -4.70455,0 -4.79502,0.19339 -3.43794,3.48124 1.17614,2.90104 1.53803,7.54271 1.53803,22.04791 0,15.66563 -0.27142,19.14688 -1.89991,23.59514 l -1.80945,5.02847 h 4.52361 c 4.88549,0 5.51878,-0.967 3.07604,-4.83507 -1.17614,-1.93402 -1.62849,-6.38229 -1.89991,-20.50069 l -0.3619,-18.17985 10.31383,21.6611 c 5.60927,11.99098 10.58524,21.85451 10.94711,21.85451 0.36188,0 0.63331,-10.25034 0.63331,-22.82152 0,-17.01944 0.36189,-23.78854 1.35709,-26.68958 0.72377,-1.93403 1.35708,-4.06146 1.35708,-4.64166 0,-1.35383 -6.06164,-1.74063 -6.69494,-0.38681 z"
     id="path3"
     style="fill:#ffffff;stroke:none;stroke-width:0.132278" />
  <path
     d="m 188.64519,252.75272 c 1.71898,6.9625 0.45237,44.48263 -1.53802,47.57708 -1.35708,2.12743 0,2.51424 7.87107,2.51424 8.05202,0 10.04239,-0.58022 13.48034,-4.44827 7.96154,-8.70312 9.49956,-28.23681 3.25699,-41.775 l -3.25699,-6.9625 -10.49476,-0.5802 -10.49476,-0.77361 z m 14.65648,0 c 3.25699,3.09444 4.43313,8.89653 4.34266,21.27431 0,17.21285 -2.44276,24.94895 -7.87107,24.94895 -3.16652,0 -3.98077,-6.38229 -3.98077,-29.20382 v -19.14687 h 2.71416 c 1.44755,0 3.61888,0.96701 4.79502,2.12743 z"
     id="path4"
     style="fill:#ffffff;stroke:none;stroke-width:0.132278" />
  <path
     d="m 69.403018,250.94584 c -3.709355,5.02848 -5.066435,10.63717 -4.342654,17.79307 0.72377,6.57569 3.528413,10.25034 9.499562,12.37777 5.518795,1.93403 7.237764,4.25486 7.237764,9.67014 0,14.1184 -10.132868,14.3118 -14.38505,0.1934 -1.809448,-5.80208 -2.261805,-5.22187 -3.166528,3.86806 -0.72377,7.3493 0,8.31632 8.142487,9.86354 8.775792,1.74063 14.746943,-4.64166 16.194499,-17.21285 0.995185,-8.12291 -3.347468,-16.43924 -9.499562,-18.17986 -4.433139,-1.16042 -8.142495,-5.99549 -8.142495,-10.25034 0,-3.86806 2.985585,-7.92952 5.790211,-7.92952 3.166526,0 4.885496,2.32083 7.147308,9.47674 l 1.447541,4.64166 0.814242,-6.57569 c 0.452371,-3.67465 0.542843,-7.34931 0.09046,-8.31632 -0.3619,-0.96702 -3.709354,-2.12743 -7.328236,-2.51424 -5.518809,-0.77361 -7.056822,-0.19339 -9.499574,3.09444 z"
     id="path5"
     style="fill:#ffffff;stroke:none;stroke-width:0.132278" />
  <path
     d="m 104.8,272.7738 c -2.1,0.86493 -2.5,1.55687 -1.8,3.63269 0.5,1.38388 1,10.37911 1,19.89329 0,13.49284 -0.4,18.33642 -1.7,21.45015 l -1.6,4.15165 3.9,-1.03792 c 2.1,-0.69193 8.5,-1.21089 14.1,-1.21089 h 10.2 l 1,-6.57343 c 1.6,-9.51418 1.4,-10.03314 -1.6,-5.01657 -3.6,5.88149 -10,10.37911 -12.9,9.16821 -2.4,-1.03791 -3.1,-3.97866 -3.6,-14.87672 -0.3,-5.36254 0,-6.05448 2.2,-6.57343 1.4,-0.17299 4.2,1.0379 6.3,2.94074 l 3.7,3.28672 v -8.82224 -8.82224 l -2,3.80567 c -2.1,3.80567 -8.1,6.74642 -9.9,4.67059 -0.6,-0.51895 -1.1,-4.84358 -1.1,-9.68716 v -8.47627 h 3.9 c 2.1,0 5.8,1.90283 8.5,4.32463 4.8,4.32462 5.2,3.97865 3.6,-3.28672 -0.9,-4.32463 -1.1,-4.49761 -10.2,-4.32463 -5.1,0.17299 -10.5,0.69194 -12,1.38388 z"
     id="path6"
     style="fill:#ffffff;stroke:none;stroke-width:0.131524"
     clip-path="url(#clipPath25)"
     inkscape:path-effect="#path-effect29"
     inkscape:original-d="m 104.8,272.7738 c -2.1,0.86493 -2.5,1.55687 -1.8,3.63269 0.5,1.38388 1,10.37911 1,19.89329 0,13.49284 -0.4,18.33642 -1.7,21.45015 l -1.6,4.15165 3.9,-1.03792 c 2.1,-0.69193 8.5,-1.21089 14.1,-1.21089 h 10.2 l 1,-6.57343 c 1.6,-9.51418 1.4,-10.03314 -1.6,-5.01657 -3.6,5.88149 -10,10.37911 -12.9,9.16821 -2.4,-1.03791 -3.1,-3.97866 -3.6,-14.87672 -0.3,-5.36254 0,-6.05448 2.2,-6.57343 1.4,-0.17299 4.2,1.0379 6.3,2.94074 l 3.7,3.28672 v -8.82224 -8.82224 l -2,3.80567 c -2.1,3.80567 -8.1,6.74642 -9.9,4.67059 -0.6,-0.51895 -1.1,-4.84358 -1.1,-9.68716 v -8.47627 h 3.9 c 2.1,0 5.8,1.90283 8.5,4.32463 4.8,4.32462 5.2,3.97865 3.6,-3.28672 -0.9,-4.32463 -1.1,-4.49761 -10.2,-4.32463 -5.1,0.17299 -10.5,0.69194 -12,1.38388 z"
     transform="matrix(0.90472058,0,0,1.1180312,12.134208,-55.957794)" />
  <path
     d="m 171.88954,150.02485 c -1.15721,1.84776 -1.81846,4.6194 -1.48784,6.46715 0.16532,1.61679 -1.48781,6.69813 -3.80222,11.08656 -2.47972,4.38842 -5.95133,14.08914 -7.93509,21.48018 -3.96754,15.47497 -3.96754,15.47497 -1.81846,15.47497 0.99189,0 3.47159,-5.54327 5.62069,-12.24139 l 3.80224,-12.01043 0.66125,12.47236 c 0.49594,10.16268 -0.33063,15.70595 -5.12475,31.64286 l -5.786,19.40146 H 27.40473 c 0,0 67.321034,16.75886 149.27893,16.62983 l 271.11568,-0.46195 v -8.08394 -8.08394 H 318.85408 c -113.90165,0 -128.77994,-0.46194 -127.95337,-3.46454 0.66124,-2.07873 0.1653,-3.46454 -1.15721,-3.46454 -2.97567,0 -9.91886,-24.94474 -11.07606,-38.80293 l -0.82658,-10.39363 6.11664,6.46715 c 8.1004,8.54587 9.42291,5.54326 2.14908,-4.85037 -8.26572,-12.01043 -10.58013,-20.32534 -7.60446,-27.71638 3.30628,-9.00782 -2.3144,-18.93952 -6.61258,-11.54848 z m 5.62069,76.22002 c 2.31441,6.9291 4.13286,13.85819 4.13286,15.01304 0,3.69552 -14.21704,3.0026 -16.36614,-0.69291 -1.48783,-2.54068 -0.99187,-5.77425 2.64505,-15.01304 2.4797,-6.46715 4.79411,-11.77946 5.12473,-11.77946 0.16532,0 2.1491,5.54328 4.4635,12.47237 z"
     id="path7"
     style="fill:#2f4f3e;fill-opacity:1;stroke:none;stroke-width:0.195404"
     clip-path="url(#clipPath32)"
     inkscape:original-d="m 171.88954,150.02485 c -1.15721,1.84776 -1.81846,4.6194 -1.48784,6.46715 0.16532,1.61679 -1.48781,6.69813 -3.80222,11.08656 -2.47972,4.38842 -5.95133,14.08914 -7.93509,21.48018 -3.96754,15.47497 -3.96754,15.47497 -1.81846,15.47497 0.99189,0 3.47159,-5.54327 5.62069,-12.24139 l 3.80224,-12.01043 0.66125,12.47236 c 0.49594,10.16268 -0.33063,15.70595 -5.12475,31.64286 l -5.786,19.40146 H 27.40473 c 0,0 67.321034,16.75886 149.27893,16.62983 l 271.11568,-0.46195 v -8.08394 -8.08394 H 318.85408 c -113.90165,0 -128.77994,-0.46194 -127.95337,-3.46454 0.66124,-2.07873 0.1653,-3.46454 -1.15721,-3.46454 -2.97567,0 -9.91886,-24.94474 -11.07606,-38.80293 l -0.82658,-10.39363 6.11664,6.46715 c 8.1004,8.54587 9.42291,5.54326 2.14908,-4.85037 -8.26572,-12.01043 -10.58013,-20.32534 -7.60446,-27.71638 3.30628,-9.00782 -2.3144,-18.93952 -6.61258,-11.54848 z m 5.62069,76.22002 c 2.31441,6.9291 4.13286,13.85819 4.13286,15.01304 0,3.69552 -14.21704,3.0026 -16.36614,-0.69291 -1.48783,-2.54068 -0.99187,-5.77425 2.64505,-15.01304 2.4797,-6.46715 4.79411,-11.77946 5.12473,-11.77946 0.16532,0 2.1491,5.54328 4.4635,12.47237 z"
     inkscape:path-effect="#path-effect9;#path-effect11;#path-effect15;#path-effect10;#path-effect18;#path-effect21;#path-effect23;#path-effect28"
     transform="matrix(2.7205774,0,0,1.6020601,-300.4718,-176.0469)"
     sodipodi:nodetypes="ccccsccccccccccscsccccccssccss" />
  <rect
     style="fill:#2f4f3e;fill-opacity:1;stroke:none;stroke-width:0.772522"
     id="rect34"
     width="355.75848"
     height="21.253727"
     x="0.24151964"
     y="213.37585" />
</svg>
